<?xml version="1.0" encoding="UTF-8" standalone="no"?>
<svg
   xmlns:dc="http://purl.org/dc/elements/1.1/"
   xmlns:cc="http://creativecommons.org/ns#"
   xmlns:rdf="http://www.w3.org/1999/02/22-rdf-syntax-ns#"
   xmlns:svg="http://www.w3.org/2000/svg"
   xmlns="http://www.w3.org/2000/svg"
   xmlns:sodipodi="http://sodipodi.sourceforge.net/DTD/sodipodi-0.dtd"
   xmlns:inkscape="http://www.inkscape.org/namespaces/inkscape"
   width="206.53467"
   height="186.308"
   viewBox="0 0 54.64563 49.293994"
   version="1.1"
   id="svg8"
   inkscape:version="1.0.1 (3bc2e813f5, 2020-09-07)"
   sodipodi:docname="VoodooBond.svg">
  <defs
     id="defs2" />
  <sodipodi:namedview
     id="base"
     pagecolor="#ffffff"
     bordercolor="#666666"
     borderopacity="1.0"
     inkscape:pageopacity="0.0"
     inkscape:pageshadow="2"
     inkscape:zoom="0.98994949"
     inkscape:cx="277.89317"
     inkscape:cy="-95.281794"
     inkscape:document-units="mm"
     inkscape:current-layer="layer1"
     inkscape:document-rotation="0"
     showgrid="false"
     units="px"
     fit-margin-top="0"
     fit-margin-left="0"
     fit-margin-right="0"
     fit-margin-bottom="0"
     inkscape:window-width="1431"
     inkscape:window-height="1080"
     inkscape:window-x="160"
     inkscape:window-y="448"
     inkscape:window-maximized="0" />
  <metadata
     id="metadata5">
    <rdf:RDF>
      <cc:Work
         rdf:about="">
        <dc:format>image/svg+xml</dc:format>
        <dc:type
           rdf:resource="http://purl.org/dc/dcmitype/StillImage" />
        <dc:title></dc:title>
      </cc:Work>
    </rdf:RDF>
  </metadata>
  <g
     inkscape:label="Layer 1"
     inkscape:groupmode="layer"
     id="layer1"
     transform="translate(-148.05814,-183.99586)">
    <g
       id="g36"
       transform="matrix(0.35277777,0,0,-0.35277777,178.63675,222.24897)">
      <path
         d="m 0,0 c -16.789,0 -30.398,13.609 -30.398,30.397 0,10.295 5.122,19.388 12.951,24.887 -13.162,-3.34 -22.9,-15.264 -22.9,-29.464 0,-16.788 13.61,-30.398 30.398,-30.398 6.031,0 11.646,1.763 16.373,4.792 C 5.942,0.27 5.465,0.336 4.991,0.415 3.366,0.146 1.7,0 0,0"
         style="fill:#fbae17;fill-opacity:1;fill-rule:nonzero;stroke:none"
         id="path38" />
    </g>
    <g
       id="g40"
       transform="matrix(0.35277777,0,0,-0.35277777,167.91281,211.52544)">
      <path
         d="m 0,0 c 0,-16.788 13.609,-30.397 30.398,-30.397 1.701,0 3.367,0.146 4.992,0.414 C 20.977,-27.601 9.982,-15.087 9.982,0 c 0,10.758 5.593,20.203 14.026,25.606 -1.168,0.136 -2.354,0.214 -3.559,0.214 -2.588,0 -5.099,-0.325 -7.498,-0.934 C 5.122,19.387 0,10.294 0,0"
         style="fill:#ffbe47;fill-opacity:1;fill-rule:nonzero;stroke:none"
         id="path42" />
    </g>
    <g
       id="g44"
       transform="matrix(0.35277777,0,0,-0.35277777,189.84741,208.64293)">
      <path
         d="m 0,0 c 0,-3.433 -2.783,-6.215 -6.216,-6.215 -3.432,0 -6.216,2.782 -6.216,6.215 0,3.433 2.784,6.216 6.216,6.216 C -2.783,6.216 0,3.433 0,0"
         style="fill:#fbae17;fill-opacity:1;fill-rule:nonzero;stroke:none"
         id="path46" />
    </g>
    <g
       id="g48"
       transform="matrix(0.35277777,0,0,-0.35277777,198.64171,227.81227)">
      <path
         d="m 0,0 c -1.998,-3.461 -5.576,-5.527 -9.572,-5.527 h -112.727 c -3.996,0 -7.575,2.066 -9.573,5.526 -1.998,3.461 -1.998,7.594 0,11.055 l 56.363,97.624 c 1.998,3.461 5.576,5.526 9.572,5.526 3.998,0 7.576,-2.065 9.574,-5.526 L -42.752,85.102 -56.66,61.012 c -3.806,-6.592 -3.806,-14.462 0,-21.054 3.806,-6.592 10.622,-10.527 18.233,-10.527 h 27.818 L 0,11.054 C 1.998,7.593 1.998,3.46 0,0 m -23.381,86.507 c 3.787,-0.204 7.051,-2.211 8.954,-5.507 L 0,56.012 c 1.903,-3.296 2.01,-7.126 0.292,-10.508 -1.705,-3.358 -4.925,-5.601 -8.61,-5.997 v -10e-4 c -0.487,-0.051 -0.885,-0.075 -1.254,-0.075 h -28.855 c -3.996,0 -7.574,2.066 -9.573,5.527 -1.998,3.461 -1.998,7.593 0,11.054 l 14.427,24.987 c 0.188,0.326 0.415,0.669 0.691,1.047 l 0.005,0.006 c 2.188,2.991 5.741,4.658 9.496,4.455 M 8.66,16.054 -0.303,31.579 c 4.037,1.977 7.396,5.232 9.511,9.398 3.23,6.358 3.024,13.848 -0.548,20.035 L -5.767,86 c -3.572,6.188 -9.957,10.109 -17.077,10.492 -4.67,0.245 -9.166,-1.034 -12.894,-3.539 l -11.965,20.725 c -3.806,6.592 -10.621,10.526 -18.234,10.526 -7.611,0 -14.426,-3.934 -18.232,-10.526 l -56.363,-97.624 c -3.806,-6.592 -3.806,-14.463 0,-21.055 3.806,-6.591 10.622,-10.526 18.233,-10.526 H -9.572 c 7.611,0 14.426,3.935 18.232,10.527 3.806,6.592 3.806,14.462 0,21.054"
         style="fill:#ffbe47;fill-opacity:1;fill-rule:nonzero;stroke:none"
         id="path50" />
    </g>
  </g>
</svg>
