<svg width="22" height="16" viewBox="0 0 22 16" fill="none" xmlns="http://www.w3.org/2000/svg">
<path fill-rule="evenodd" clip-rule="evenodd" d="M16.2363 15.2034C20.399 15.0767 22 12.4524 22 12.4524C22 6.62444 19.2877 1.90056 19.2877 1.90056C16.5753 -0.0541466 13.9949 0.000150405 13.9949 0.000150405L13.7312 0.289737C16.9332 1.23089 18.4212 2.58833 18.4212 2.58833C16.4623 1.55668 14.5411 1.0499 12.7517 0.85081C11.3955 0.706017 10.0959 0.742215 8.94692 0.887008L8.62671 0.923207C7.96747 0.977504 6.36644 1.21279 4.35103 2.06345C3.65411 2.37114 3.23973 2.58833 3.23973 2.58833C3.23973 2.58833 4.80308 1.1585 8.19349 0.21734L8.00514 0.000150405C8.00514 0.000150405 5.42466 -0.0541466 2.71233 1.90056C2.71233 1.90056 0 6.62444 0 12.4524C0 12.4524 1.58219 15.0767 5.74486 15.2034C5.74486 15.2034 6.44178 14.389 7.00685 13.7012C4.61473 13.0134 3.71062 11.5655 3.71062 11.5655L4.23801 11.8732L4.31336 11.9275L4.38713 11.9682L4.4091 11.9773L4.48288 12.018C4.95377 12.2714 5.42466 12.4705 5.85788 12.6334C6.63014 12.9229 7.55308 13.2125 8.62671 13.4116C10.0394 13.665 11.6969 13.7555 13.5051 13.4297C14.3904 13.2849 15.2945 13.0315 16.2363 12.6515C16.8955 12.4162 17.6301 12.0723 18.4024 11.5836C18.4024 11.5836 17.4606 13.0677 14.9932 13.7374C15.5582 14.4252 16.2363 15.2034 16.2363 15.2034ZM7.47774 6.75113C6.40411 6.75113 5.55651 7.65609 5.55651 8.76013C5.55651 9.86418 6.42295 10.7691 7.47774 10.7691C8.55137 10.7691 9.39897 9.86418 9.39897 8.76013C9.41781 7.65609 8.55137 6.75113 7.47774 6.75113ZM14.3527 6.75113C13.2791 6.75113 12.4315 7.65609 12.4315 8.76013C12.4315 9.86418 13.2979 10.7691 14.3527 10.7691C15.4264 10.7691 16.274 9.86418 16.274 8.76013C16.274 7.65609 15.4264 6.75113 14.3527 6.75113Z" fill="white"/>
</svg>
