<?xml version="1.0" encoding="UTF-8" standalone="no"?>
<svg
   xmlns:dc="http://purl.org/dc/elements/1.1/"
   xmlns:cc="http://creativecommons.org/ns#"
   xmlns:rdf="http://www.w3.org/1999/02/22-rdf-syntax-ns#"
   xmlns:svg="http://www.w3.org/2000/svg"
   xmlns="http://www.w3.org/2000/svg"
   xmlns:sodipodi="http://sodipodi.sourceforge.net/DTD/sodipodi-0.dtd"
   xmlns:inkscape="http://www.inkscape.org/namespaces/inkscape"
   width="206.53467"
   height="186.30933"
   viewBox="0 0 54.64563 49.294341"
   version="1.1"
   id="svg8"
   inkscape:version="1.0.1 (3bc2e813f5, 2020-09-07)"
   sodipodi:docname="VoodooDollar.svg">
  <defs
     id="defs2" />
  <sodipodi:namedview
     id="base"
     pagecolor="#ffffff"
     bordercolor="#666666"
     borderopacity="1.0"
     inkscape:pageopacity="0.0"
     inkscape:pageshadow="2"
     inkscape:zoom="1.979899"
     inkscape:cx="141.53248"
     inkscape:cy="148.84015"
     inkscape:document-units="mm"
     inkscape:current-layer="layer1"
     inkscape:document-rotation="0"
     showgrid="false"
     inkscape:window-width="1431"
     inkscape:window-height="1080"
     inkscape:window-x="224"
     inkscape:window-y="448"
     inkscape:window-maximized="0"
     units="px"
     width="61in"
     fit-margin-top="0"
     fit-margin-left="0"
     fit-margin-right="0"
     fit-margin-bottom="0" />
  <metadata
     id="metadata5">
    <rdf:RDF>
      <cc:Work
         rdf:about="">
        <dc:format>image/svg+xml</dc:format>
        <dc:type
           rdf:resource="http://purl.org/dc/dcmitype/StillImage" />
        <dc:title></dc:title>
      </cc:Work>
    </rdf:RDF>
  </metadata>
  <g
     inkscape:label="Layer 1"
     inkscape:groupmode="layer"
     id="layer1"
     transform="translate(-80.400397,-122.00759)">
    <g
       id="g280"
       transform="matrix(0.35277777,0,0,-0.35277777,104.34607,127.48517)">
      <path
         d="m 0,0 -56.363,-97.624 c -1.998,-3.461 -1.998,-7.593 0,-11.054 1.998,-3.461 5.577,-5.527 9.573,-5.527 H 65.936 c 3.996,0 7.575,2.067 9.573,5.528 1.998,3.46 1.998,7.593 0,11.053 L 19.146,0 C 17.148,3.461 13.569,5.527 9.573,5.527 5.577,5.527 1.998,3.461 0,0 M 65.936,-124.205 H -46.79 c -7.611,0 -14.428,3.936 -18.233,10.527 -3.806,6.592 -3.806,14.463 0,21.054 L -8.66,5 C -4.854,11.592 1.961,15.527 9.573,15.527 17.185,15.527 24,11.592 27.806,5 l 56.363,-97.624 c 3.806,-6.591 3.806,-14.461 0,-21.053 -3.805,-6.592 -10.621,-10.528 -18.233,-10.528"
         style="fill:#50248f;fill-opacity:1;fill-rule:nonzero;stroke:none"
         id="path282" />
    </g>
    <g
       id="g284"
       transform="matrix(0.35277777,0,0,-0.35277777,107.72332,144.10481)">
      <path
         d="m 0,0 c -12.674,0 -22.986,-10.312 -22.986,-22.986 0,-12.674 10.312,-22.986 22.986,-22.986 12.674,0 22.986,10.312 22.986,22.986 C 22.986,-10.312 12.674,0 0,0 m 0,-51.972 c -15.983,0 -28.986,13.003 -28.986,28.986 C -28.986,-7.003 -15.983,6 0,6 15.983,6 28.986,-7.003 28.986,-22.986 28.986,-38.969 15.983,-51.972 0,-51.972"
         style="fill:#fbae17;fill-opacity:1;fill-rule:nonzero;stroke:none"
         id="path286" />
    </g>
    <g
       id="g288"
       transform="matrix(0.35277777,0,0,-0.35277777,107.72332,141.94733)">
      <path
         d="m 0,0 c -16.047,0 -29.102,-13.055 -29.102,-29.102 0,-16.046 13.055,-29.101 29.102,-29.101 16.046,0 29.102,13.055 29.102,29.101 C 29.102,-13.055 16.046,0 0,0 m 0,-59.516 c -8.124,0 -15.762,3.163 -21.506,8.908 -5.745,5.745 -8.909,13.382 -8.909,21.506 0,8.124 3.164,15.762 8.909,21.507 5.744,5.744 13.382,8.908 21.506,8.908 8.124,0 15.762,-3.164 21.506,-8.908 5.745,-5.745 8.909,-13.383 8.909,-21.507 0,-8.124 -3.164,-15.761 -8.909,-21.506 C 15.762,-56.353 8.124,-59.516 0,-59.516"
         style="fill:#50248f;fill-opacity:1;fill-rule:nonzero;stroke:none"
         id="path290" />
    </g>
    <g
       id="g292"
       transform="matrix(0.35277777,0,0,-0.35277777,107.72332,140.61443)">
      <path
         d="m 0,0 c -18.13,0 -32.88,-14.75 -32.88,-32.88 0,-18.13 14.75,-32.88 32.88,-32.88 18.13,0 32.88,14.75 32.88,32.88 C 32.88,-14.75 18.13,0 0,0 m 0,-67.073 c -4.616,0 -9.094,0.905 -13.31,2.688 -4.071,1.722 -7.728,4.187 -10.868,7.327 -3.14,3.14 -5.605,6.797 -7.327,10.869 -1.784,4.215 -2.688,8.693 -2.688,13.309 0,4.616 0.904,9.094 2.688,13.31 1.722,4.071 4.187,7.728 7.327,10.868 3.14,3.14 6.797,5.605 10.868,7.327 4.216,1.784 8.694,2.688 13.31,2.688 4.616,0 9.094,-0.904 13.31,-2.688 4.071,-1.722 7.728,-4.187 10.868,-7.327 3.14,-3.14 5.605,-6.797 7.327,-10.868 1.784,-4.216 2.687,-8.694 2.687,-13.31 0,-4.616 -0.903,-9.094 -2.687,-13.309 -1.722,-4.072 -4.187,-7.729 -7.327,-10.869 -3.14,-3.14 -6.797,-5.605 -10.868,-7.327 C 9.094,-66.168 4.616,-67.073 0,-67.073"
         style="fill:#50248f;fill-opacity:1;fill-rule:nonzero;stroke:none"
         id="path294" />
    </g>
    <g
       id="g296"
       transform="matrix(0.35277777,0,0,-0.35277777,106.60332,139.19228)">
      <path
         d="m 0,0 c -0.337,0 -0.625,0.259 -0.653,0.602 -0.03,0.361 0.238,0.678 0.599,0.709 0.37,0.03 0.745,0.056 1.116,0.076 C 1.423,1.407 1.734,1.129 1.753,0.768 1.773,0.406 1.496,0.096 1.134,0.077 0.775,0.057 0.412,0.032 0.056,0.002 0.037,0.001 0.019,0 0,0 m 8.503,-0.242 c -0.03,0 -0.061,0.002 -0.092,0.007 C 7.141,-0.056 5.844,0.059 4.556,0.106 4.193,0.12 3.91,0.424 3.924,0.787 3.937,1.149 4.244,1.433 4.604,1.418 5.937,1.37 7.28,1.25 8.595,1.064 8.954,1.014 9.204,0.682 9.153,0.323 9.106,-0.005 8.825,-0.242 8.503,-0.242 m 4.929,-1.038 c -0.059,0 -0.119,0.008 -0.179,0.025 -0.346,0.097 -0.697,0.191 -1.044,0.277 -0.352,0.088 -0.565,0.445 -0.477,0.797 0.088,0.351 0.444,0.565 0.796,0.477 0.36,-0.09 0.723,-0.187 1.081,-0.288 0.349,-0.098 0.552,-0.461 0.454,-0.81 -0.082,-0.289 -0.345,-0.478 -0.631,-0.478 m -21.16,-0.189 c -0.282,0 -0.543,0.183 -0.628,0.467 -0.104,0.347 0.092,0.713 0.439,0.818 1.274,0.385 2.584,0.705 3.893,0.954 0.356,0.068 0.699,-0.166 0.767,-0.522 0.068,-0.357 -0.166,-0.7 -0.522,-0.768 -1.264,-0.24 -2.529,-0.55 -3.759,-0.921 -0.063,-0.019 -0.127,-0.028 -0.19,-0.028 m -4.291,-1.587 c -0.252,0 -0.493,0.147 -0.601,0.392 -0.147,0.332 0.004,0.719 0.336,0.866 0.338,0.149 0.683,0.295 1.027,0.435 0.336,0.136 0.718,-0.025 0.855,-0.361 0.136,-0.336 -0.025,-0.719 -0.361,-0.856 -0.332,-0.134 -0.665,-0.276 -0.992,-0.42 -0.086,-0.038 -0.176,-0.056 -0.264,-0.056 M 20.33,-3.989 c -0.101,0 -0.203,0.023 -0.299,0.072 -1.145,0.586 -2.334,1.118 -3.533,1.581 -0.338,0.13 -0.507,0.51 -0.376,0.848 0.13,0.339 0.51,0.507 0.848,0.377 1.242,-0.479 2.473,-1.03 3.659,-1.638 0.323,-0.165 0.451,-0.56 0.286,-0.883 -0.116,-0.227 -0.347,-0.357 -0.585,-0.357 m 4.321,-2.592 c -0.129,0 -0.259,0.039 -0.373,0.118 -0.296,0.205 -0.598,0.408 -0.898,0.604 -0.303,0.198 -0.389,0.605 -0.191,0.908 0.198,0.304 0.604,0.39 0.908,0.192 0.311,-0.203 0.624,-0.413 0.929,-0.626 0.298,-0.206 0.372,-0.615 0.165,-0.913 -0.127,-0.184 -0.332,-0.283 -0.54,-0.283 m -43.496,-0.383 c -0.204,0 -0.405,0.094 -0.533,0.272 -0.212,0.295 -0.145,0.705 0.149,0.917 1.08,0.778 2.213,1.509 3.368,2.17 0.315,0.18 0.715,0.071 0.896,-0.244 0.18,-0.314 0.071,-0.715 -0.243,-0.895 -1.115,-0.639 -2.21,-1.344 -3.254,-2.096 -0.116,-0.084 -0.25,-0.124 -0.383,-0.124 m -3.547,-2.898 c -0.176,0 -0.353,0.071 -0.482,0.212 -0.246,0.266 -0.23,0.681 0.037,0.927 0.273,0.252 0.553,0.503 0.833,0.746 0.273,0.239 0.688,0.21 0.926,-0.064 0.238,-0.273 0.209,-0.688 -0.064,-0.925 -0.27,-0.236 -0.541,-0.478 -0.804,-0.722 -0.127,-0.116 -0.286,-0.174 -0.446,-0.174 m 52.69,-1.522 c -0.172,0 -0.344,0.067 -0.472,0.2 -0.894,0.926 -1.846,1.814 -2.83,2.642 -0.278,0.233 -0.314,0.647 -0.08,0.925 0.232,0.277 0.646,0.313 0.924,0.08 1.019,-0.857 2.005,-1.776 2.93,-2.734 0.251,-0.261 0.245,-0.677 -0.017,-0.929 -0.127,-0.123 -0.291,-0.184 -0.455,-0.184 m 3.25,-3.847 c -0.202,0 -0.401,0.092 -0.529,0.267 -0.212,0.288 -0.432,0.577 -0.653,0.86 -0.223,0.286 -0.173,0.698 0.113,0.921 0.285,0.224 0.697,0.174 0.921,-0.112 0.229,-0.293 0.456,-0.593 0.676,-0.891 0.215,-0.292 0.153,-0.702 -0.139,-0.917 -0.118,-0.086 -0.254,-0.128 -0.389,-0.128 m -61.136,-0.54 c -0.132,0 -0.265,0.04 -0.38,0.122 -0.296,0.21 -0.365,0.619 -0.156,0.915 0.771,1.086 1.608,2.143 2.488,3.143 0.239,0.272 0.654,0.299 0.926,0.059 0.272,-0.239 0.299,-0.654 0.059,-0.926 -0.849,-0.966 -1.658,-1.987 -2.402,-3.036 -0.128,-0.18 -0.33,-0.277 -0.535,-0.277 m -2.421,-3.89 c -0.106,0 -0.213,0.026 -0.312,0.079 -0.319,0.173 -0.437,0.571 -0.265,0.89 0.177,0.326 0.361,0.655 0.547,0.978 0.182,0.314 0.583,0.421 0.897,0.239 0.314,-0.182 0.421,-0.584 0.24,-0.897 -0.181,-0.312 -0.359,-0.629 -0.529,-0.944 -0.119,-0.22 -0.345,-0.345 -0.578,-0.345 m 67.345,-1.94 c -0.247,0 -0.483,0.141 -0.595,0.379 -0.545,1.163 -1.158,2.312 -1.822,3.413 -0.188,0.31 -0.087,0.714 0.223,0.901 0.31,0.188 0.714,0.088 0.901,-0.223 0.688,-1.14 1.323,-2.33 1.887,-3.535 0.153,-0.328 0.012,-0.719 -0.316,-0.873 -0.09,-0.042 -0.185,-0.062 -0.278,-0.062 m 1.824,-4.694 c -0.28,0 -0.538,0.179 -0.626,0.46 -0.108,0.342 -0.221,0.688 -0.338,1.026 -0.119,0.343 0.063,0.717 0.406,0.835 0.343,0.119 0.716,-0.064 0.835,-0.406 0.121,-0.351 0.238,-0.709 0.35,-1.063 0.108,-0.346 -0.085,-0.714 -0.431,-0.823 -0.065,-0.02 -0.131,-0.029 -0.196,-0.029 m -72.165,-0.642 c -0.061,0 -0.123,0.008 -0.185,0.027 -0.348,0.102 -0.547,0.467 -0.445,0.814 0.375,1.278 0.822,2.551 1.33,3.783 0.138,0.334 0.522,0.494 0.857,0.356 0.335,-0.138 0.494,-0.522 0.357,-0.856 -0.49,-1.19 -0.922,-2.418 -1.284,-3.652 -0.084,-0.286 -0.346,-0.472 -0.63,-0.472 m -1.017,-4.465 c -0.036,0 -0.071,0.003 -0.107,0.009 -0.358,0.059 -0.6,0.396 -0.541,0.754 0.06,0.366 0.126,0.737 0.197,1.101 0.07,0.356 0.414,0.589 0.77,0.519 0.356,-0.069 0.588,-0.414 0.519,-0.769 -0.069,-0.353 -0.133,-0.711 -0.191,-1.064 -0.053,-0.321 -0.332,-0.55 -0.647,-0.55 m 74.684,-2.15 c -0.331,0 -0.616,0.25 -0.652,0.587 -0.135,1.28 -0.34,2.566 -0.608,3.822 -0.076,0.354 0.15,0.704 0.505,0.779 0.355,0.076 0.703,-0.151 0.779,-0.505 0.277,-1.3 0.489,-2.632 0.629,-3.958 0.039,-0.36 -0.223,-0.683 -0.583,-0.721 -0.024,-0.003 -0.047,-0.004 -0.07,-0.004 m 0.196,-5.115 h -0.019 c -0.362,0.01 -0.647,0.313 -0.637,0.675 0.01,0.36 0.016,0.723 0.016,1.081 l -0.001,0.08 c -10e-4,0.363 0.292,0.658 0.655,0.659 h 0.002 c 0.361,0 0.655,-0.293 0.656,-0.655 v -0.084 c 0,-0.37 -0.005,-0.747 -0.016,-1.118 -0.01,-0.356 -0.302,-0.638 -0.656,-0.638 m -75.346,-0.588 c -0.349,0 -0.64,0.275 -0.655,0.628 -0.025,0.568 -0.038,1.146 -0.038,1.716 0,0.762 0.023,1.532 0.067,2.29 0.022,0.362 0.332,0.638 0.694,0.617 0.362,-0.022 0.638,-0.332 0.617,-0.694 -0.043,-0.733 -0.065,-1.477 -0.065,-2.213 0,-0.551 0.012,-1.11 0.036,-1.659 0.016,-0.362 -0.265,-0.668 -0.626,-0.684 -0.01,-0.001 -0.021,-0.001 -0.03,-0.001 m 0.477,-4.554 c -0.315,0 -0.593,0.227 -0.647,0.548 -0.061,0.367 -0.117,0.74 -0.168,1.107 -0.049,0.359 0.203,0.69 0.562,0.739 0.359,0.049 0.69,-0.202 0.739,-0.562 0.048,-0.354 0.103,-0.713 0.162,-1.068 0.06,-0.357 -0.182,-0.696 -0.539,-0.755 -0.037,-0.006 -0.073,-0.009 -0.109,-0.009 m 73.935,-2.21 c -0.049,0 -0.098,0.006 -0.148,0.017 -0.353,0.081 -0.574,0.433 -0.493,0.786 0.287,1.252 0.51,2.535 0.665,3.813 0.043,0.36 0.37,0.617 0.73,0.573 0.36,-0.044 0.617,-0.371 0.573,-0.731 -0.16,-1.323 -0.391,-2.651 -0.688,-3.948 -0.07,-0.304 -0.34,-0.51 -0.639,-0.51 m -1.455,-4.827 c -0.077,0 -0.155,0.014 -0.231,0.043 -0.34,0.127 -0.511,0.506 -0.383,0.845 0.126,0.335 0.249,0.679 0.367,1.02 0.117,0.343 0.49,0.526 0.834,0.408 0.342,-0.117 0.525,-0.491 0.407,-0.834 -0.121,-0.354 -0.249,-0.709 -0.38,-1.056 -0.099,-0.264 -0.349,-0.426 -0.614,-0.426 m -70.379,-0.545 c -0.261,0 -0.509,0.158 -0.611,0.416 -0.488,1.239 -0.916,2.518 -1.271,3.801 -0.097,0.349 0.107,0.711 0.457,0.808 0.349,0.096 0.711,-0.108 0.808,-0.457 0.343,-1.24 0.756,-2.474 1.228,-3.67 0.132,-0.338 -0.033,-0.719 -0.37,-0.852 -0.079,-0.031 -0.161,-0.046 -0.241,-0.046 m 1.936,-4.147 c -0.233,0 -0.458,0.124 -0.577,0.344 -0.177,0.325 -0.352,0.658 -0.519,0.988 -0.163,0.324 -0.034,0.719 0.29,0.882 0.323,0.164 0.718,0.034 0.882,-0.289 0.161,-0.319 0.33,-0.64 0.501,-0.955 0.172,-0.318 0.055,-0.717 -0.264,-0.89 -0.1,-0.054 -0.207,-0.08 -0.313,-0.08 m 65.159,-1.953 c -0.119,0 -0.239,0.032 -0.347,0.099 -0.308,0.192 -0.401,0.597 -0.21,0.905 0.681,1.091 1.312,2.231 1.874,3.387 0.159,0.326 0.552,0.461 0.878,0.303 0.326,-0.159 0.461,-0.552 0.303,-0.878 -0.583,-1.197 -1.236,-2.377 -1.941,-3.507 -0.124,-0.199 -0.339,-0.309 -0.557,-0.309 m -2.946,-4.088 c -0.147,0 -0.295,0.05 -0.418,0.151 -0.279,0.231 -0.318,0.645 -0.087,0.924 0.228,0.276 0.456,0.56 0.677,0.843 0.223,0.286 0.635,0.337 0.921,0.115 0.286,-0.224 0.337,-0.636 0.114,-0.922 -0.228,-0.293 -0.464,-0.587 -0.701,-0.873 -0.129,-0.157 -0.317,-0.238 -0.506,-0.238 m -57.758,-0.442 c -0.185,0 -0.37,0.078 -0.5,0.23 -0.864,1.014 -1.684,2.084 -2.438,3.181 -0.205,0.298 -0.129,0.707 0.169,0.912 0.299,0.206 0.707,0.13 0.913,-0.169 0.728,-1.059 1.521,-2.092 2.355,-3.071 0.236,-0.276 0.203,-0.69 -0.073,-0.926 -0.123,-0.105 -0.275,-0.157 -0.426,-0.157 m 3.177,-3.299 c -0.158,0 -0.318,0.058 -0.444,0.174 -0.274,0.251 -0.547,0.51 -0.812,0.769 -0.26,0.253 -0.265,0.669 -0.012,0.928 0.253,0.26 0.669,0.265 0.928,0.012 0.257,-0.25 0.521,-0.5 0.785,-0.743 0.267,-0.246 0.284,-0.661 0.039,-0.927 -0.13,-0.141 -0.307,-0.213 -0.484,-0.213 m 49.322,-1.482 c -0.19,0 -0.379,0.083 -0.509,0.242 -0.229,0.281 -0.187,0.694 0.094,0.923 0.997,0.813 1.962,1.687 2.87,2.599 0.255,0.257 0.67,0.258 0.928,0.002 0.257,-0.255 0.258,-0.671 0.002,-0.928 -0.939,-0.944 -1.939,-1.849 -2.97,-2.69 -0.122,-0.099 -0.269,-0.148 -0.415,-0.148 m -4.105,-2.914 c -0.22,0 -0.436,0.111 -0.56,0.313 -0.19,0.308 -0.093,0.713 0.216,0.903 0.304,0.187 0.611,0.381 0.911,0.577 0.304,0.199 0.71,0.114 0.909,-0.189 0.199,-0.304 0.113,-0.711 -0.19,-0.909 -0.31,-0.204 -0.628,-0.405 -0.943,-0.598 -0.107,-0.066 -0.226,-0.097 -0.343,-0.097 m -38.904,-0.301 c -0.114,0 -0.229,0.03 -0.334,0.093 -1.145,0.678 -2.267,1.426 -3.336,2.221 -0.291,0.217 -0.351,0.628 -0.135,0.919 0.216,0.291 0.627,0.351 0.918,0.135 1.033,-0.769 2.117,-1.491 3.223,-2.146 0.311,-0.185 0.414,-0.588 0.229,-0.9 -0.122,-0.206 -0.341,-0.322 -0.565,-0.322 m 4.077,-2.093 c -0.088,0 -0.177,0.018 -0.263,0.056 -0.34,0.149 -0.683,0.305 -1.02,0.465 -0.328,0.155 -0.468,0.547 -0.312,0.874 0.155,0.328 0.546,0.467 0.874,0.312 0.326,-0.154 0.657,-0.305 0.985,-0.449 0.332,-0.146 0.483,-0.533 0.338,-0.865 -0.108,-0.246 -0.349,-0.393 -0.602,-0.393 m 28.16,-0.844 c -0.268,0 -0.519,0.165 -0.617,0.43 -0.125,0.34 0.049,0.718 0.389,0.843 1.206,0.444 2.403,0.958 3.557,1.527 0.324,0.16 0.718,0.027 0.879,-0.298 0.16,-0.325 0.026,-0.719 -0.299,-0.88 -1.195,-0.589 -2.434,-1.121 -3.682,-1.581 -0.076,-0.027 -0.152,-0.041 -0.227,-0.041 m -4.834,-1.419 c -0.301,0 -0.572,0.209 -0.64,0.515 -0.079,0.354 0.144,0.704 0.498,0.783 0.351,0.077 0.705,0.161 1.052,0.249 0.352,0.088 0.708,-0.124 0.797,-0.475 0.089,-0.352 -0.124,-0.709 -0.476,-0.798 -0.359,-0.09 -0.725,-0.177 -1.088,-0.258 -0.048,-0.011 -0.096,-0.016 -0.143,-0.016 m -15.826,-0.122 c -0.044,0 -0.089,0.005 -0.133,0.014 -1.305,0.268 -2.61,0.608 -3.879,1.012 -0.346,0.11 -0.536,0.479 -0.427,0.824 0.111,0.346 0.48,0.537 0.825,0.427 1.225,-0.389 2.485,-0.719 3.745,-0.977 0.356,-0.074 0.584,-0.42 0.511,-0.776 -0.064,-0.31 -0.337,-0.524 -0.642,-0.524 m 4.533,-0.647 c -0.018,0 -0.036,10e-4 -0.054,0.002 -0.371,0.031 -0.746,0.066 -1.113,0.107 -0.361,0.04 -0.621,0.365 -0.581,0.725 0.04,0.36 0.365,0.619 0.725,0.58 0.355,-0.039 0.717,-0.074 1.075,-0.103 0.362,-0.029 0.631,-0.346 0.602,-0.708 -0.028,-0.343 -0.316,-0.603 -0.654,-0.603 m 3.936,-0.116 c -0.356,0 -0.648,0.285 -0.656,0.642 -0.008,0.363 0.28,0.663 0.642,0.671 1.289,0.028 2.588,0.124 3.86,0.285 0.36,0.045 0.688,-0.21 0.733,-0.569 0.046,-0.36 -0.209,-0.688 -0.569,-0.734 -1.317,-0.166 -2.661,-0.265 -3.995,-0.294 -0.005,-10e-4 -0.01,-10e-4 -0.015,-10e-4"
         style="fill:#50248f;fill-opacity:1;fill-rule:nonzero;stroke:none"
         id="path298" />
    </g>
    <g
       id="g300"
       transform="matrix(0.35277777,0,0,-0.35277777,103.7158,153.25156)">
      <path
         d="M 0,0 C -0.908,1.14 -1.703,2.37 -2.384,3.661 -1.008,5.063 0.369,6.262 1.748,7.256 1.934,6.762 2.146,6.288 2.382,5.836 3.137,6.426 4.087,6.777 5.12,6.777 7.58,6.777 9.575,4.783 9.575,2.322 9.575,1.523 9.364,0.774 8.996,0.125 13.563,-1.29 18.824,0.701 21.313,7.506 22.665,6.576 24.018,5.451 25.37,4.134 25.048,3.534 24.708,2.941 24.345,2.364 23.937,1.715 23.495,1.089 23.032,0.481 22.568,-0.127 22.072,-0.71 21.547,-1.263 21.023,-1.817 20.465,-2.337 19.879,-2.822 18.709,-3.792 17.408,-4.601 16.012,-5.176 15.838,-5.25 15.66,-5.312 15.485,-5.381 15.307,-5.443 15.128,-5.503 14.949,-5.562 14.768,-5.613 14.588,-5.67 14.405,-5.716 14.223,-5.758 14.042,-5.812 13.856,-5.846 13.121,-6.001 12.372,-6.091 11.621,-6.113 10.869,-6.134 10.116,-6.074 9.375,-5.95 8.632,-5.826 7.901,-5.638 7.191,-5.382 6.482,-5.128 5.794,-4.809 5.133,-4.442 4.473,-4.076 3.836,-3.66 3.236,-3.197 2.634,-2.736 2.063,-2.235 1.522,-1.7 0.984,-1.163 0.477,-0.594 0,0"
         style="fill:#50248f;fill-opacity:1;fill-rule:nonzero;stroke:none"
         id="path302" />
    </g>
    <g
       id="g304"
       transform="matrix(0.35277777,0,0,-0.35277777,113.04321,152.17411)">
      <path
         d="m 0,0 c 0.743,-0.778 1.486,-1.614 2.229,-2.508 -6.334,-6.499 -12.192,-9.661 -17.901,-9.666 h -0.012 c -5.514,0 -10.982,2.842 -16.705,8.685 0.808,1.034 1.618,1.998 2.429,2.891 0.752,-1.162 1.573,-2.281 2.488,-3.321 0.531,-0.61 1.094,-1.192 1.689,-1.74 0.593,-0.55 1.218,-1.067 1.876,-1.54 0.658,-0.472 1.345,-0.907 2.064,-1.288 0.718,-0.381 1.466,-0.705 2.236,-0.972 1.539,-0.538 3.179,-0.794 4.813,-0.759 1.634,0.039 3.256,0.391 4.767,0.996 1.513,0.605 2.913,1.458 4.182,2.459 1.265,1.006 2.411,2.154 3.43,3.397 0.513,0.619 0.997,1.262 1.459,1.919 C -0.627,-0.972 -0.309,-0.489 0,0"
         style="fill:#50248f;fill-opacity:1;fill-rule:nonzero;stroke:none"
         id="path306" />
    </g>
    <g
       id="g308"
       transform="matrix(0.35277777,0,0,-0.35277777,103.05314,150.53458)">
      <path
         d="M 0,0 C 9.334,5.237 18.073,5.895 25.96,0 17.988,9.643 9.348,9.829 0,0"
         style="fill:#50248f;fill-opacity:1;fill-rule:nonzero;stroke:none"
         id="path310" />
    </g>
  </g>
</svg>
