<svg width="18" height="20" viewBox="0 0 18 20" fill="none" xmlns="http://www.w3.org/2000/svg">
<path d="M5.33851 2.06856C5.09673 2.0299 5.08653 2.02537 5.2003 2.00734C5.41835 1.97278 5.93321 2.01989 6.28801 2.10684C7.11629 2.30977 7.86997 2.82962 8.6745 3.75289L8.88823 3.99817L9.19399 3.9475C10.4821 3.73414 11.7925 3.90372 12.8885 4.42558C13.19 4.56916 13.6655 4.85496 13.7249 4.9284C13.7438 4.9518 13.7785 5.10246 13.802 5.26324C13.8834 5.81945 13.8426 6.2458 13.6777 6.56424C13.5878 6.73752 13.5828 6.79244 13.6432 6.94073C13.6914 7.05908 13.8258 7.14666 13.9589 7.14648C14.2312 7.14609 14.5243 6.69228 14.6602 6.06082L14.7142 5.81001L14.8211 5.9348C15.4074 6.61946 15.8679 7.55318 15.947 8.21781L15.9675 8.3911L15.8691 8.23357C15.6995 7.96249 15.529 7.77796 15.3108 7.62912C14.9174 7.36084 14.5014 7.26954 13.4 7.2097C12.4051 7.15568 11.842 7.06809 11.2837 6.88044C10.3338 6.56121 9.85491 6.13606 8.72652 4.61014C8.22533 3.93238 7.91555 3.5574 7.60741 3.25541C6.90722 2.56922 6.21921 2.20936 5.33851 2.06856Z" fill="white"/>
<path d="M13.9492 3.58184C13.9743 3.12768 14.0339 2.82812 14.1542 2.55454C14.2017 2.44626 14.2462 2.35764 14.2532 2.35764C14.26 2.35764 14.2393 2.43756 14.2071 2.53524C14.1198 2.80073 14.1054 3.16388 14.1656 3.58638C14.242 4.12246 14.2854 4.19981 14.8352 4.77889C15.093 5.05052 15.3929 5.39308 15.5016 5.54016L15.6993 5.80758L15.5016 5.61646C15.2599 5.38274 14.7039 4.92694 14.5811 4.86178C14.4987 4.81809 14.4865 4.81885 14.4357 4.87096C14.3889 4.91897 14.379 4.99112 14.3726 5.33221C14.3624 5.86382 14.2921 6.20504 14.1225 6.54621C14.0307 6.73074 14.0162 6.69136 14.0993 6.48308C14.1612 6.32756 14.1675 6.2592 14.1671 5.74457C14.1661 4.71056 14.0471 4.46197 13.3487 4.03613C13.1717 3.92825 12.8801 3.77268 12.7008 3.69038C12.5214 3.60809 12.3789 3.53641 12.3841 3.53105C12.4039 3.51077 13.085 3.71568 13.3592 3.82438C13.767 3.98606 13.8343 4.00702 13.8838 3.98752C13.9171 3.97444 13.9331 3.87478 13.9492 3.58184Z" fill="white"/>
<path d="M5.80813 5.35072C5.31729 4.65421 5.0136 3.5863 5.07935 2.78799L5.09967 2.54095L5.2114 2.56197C5.42122 2.60141 5.78298 2.74019 5.95237 2.84625C6.41724 3.13723 6.61849 3.52035 6.82323 4.50414C6.8832 4.7923 6.96189 5.1184 6.9981 5.2288C7.05638 5.40649 7.27663 5.82156 7.45571 6.09111C7.58469 6.28526 7.49901 6.37726 7.21389 6.35073C6.77846 6.31022 6.18864 5.89065 5.80813 5.35072Z" fill="white"/>
<path d="M13.3538 10.5345C11.06 9.58257 10.2521 8.75627 10.2521 7.36208C10.2521 7.15691 10.259 6.98904 10.2673 6.98904C10.2757 6.98904 10.3645 7.05675 10.4646 7.13952C10.9297 7.52406 11.4506 7.6883 12.8925 7.90513C13.7411 8.03273 14.2186 8.13579 14.6591 8.28635C16.0591 8.76494 16.9253 9.73615 17.1319 11.059C17.1919 11.4434 17.1567 12.1642 17.0594 12.5441C16.9826 12.8442 16.7481 13.3851 16.6859 13.4059C16.6686 13.4116 16.6518 13.3435 16.6473 13.2508C16.6238 12.754 16.3803 12.2705 15.9713 11.9082C15.5062 11.4964 14.8815 11.1684 13.3538 10.5345Z" fill="white"/>
<path d="M11.7435 10.93C11.7148 10.7537 11.6649 10.5286 11.6328 10.4297L11.5742 10.25L11.6829 10.3757C11.8334 10.5498 11.9523 10.7725 12.053 11.0691C12.1299 11.2955 12.1386 11.3629 12.138 11.7308C12.1374 12.0919 12.1278 12.1677 12.0568 12.3714C11.9448 12.6928 11.8059 12.9206 11.5727 13.1652C11.1537 13.6048 10.615 13.8481 9.83757 13.9491C9.70244 13.9665 9.30859 13.9961 8.96233 14.0147C8.08973 14.0615 7.51541 14.1581 6.99935 14.3449C6.92517 14.3717 6.85892 14.3881 6.85219 14.3812C6.83131 14.3597 7.18267 14.1439 7.47288 13.9997C7.88209 13.7965 8.28944 13.6857 9.20212 13.5291C9.65296 13.4516 10.1186 13.3577 10.2368 13.3204C11.3533 12.9675 11.9272 12.057 11.7435 10.93Z" fill="white"/>
<path d="M12.795 12.8548C12.4903 12.1795 12.4203 11.5275 12.5872 10.9195C12.6051 10.8545 12.6338 10.8013 12.6511 10.8013C12.6684 10.8013 12.7403 10.8414 12.8109 10.8904C12.9514 10.9878 13.2331 11.1519 13.9834 11.5736C14.9198 12.0999 15.4538 12.5073 15.8169 12.9729C16.1348 13.3805 16.3315 13.8449 16.4263 14.4112C16.4799 14.7319 16.4484 15.5036 16.3686 15.8265C16.1168 16.8449 15.5317 17.6448 14.6971 18.1116C14.5749 18.18 14.4651 18.2361 14.4532 18.2364C14.4413 18.2367 14.4859 18.1199 14.5522 17.9769C14.8329 17.372 14.8649 16.7836 14.6526 16.1287C14.5227 15.7276 14.2577 15.2383 13.7227 14.4112C13.1005 13.4497 12.948 13.1938 12.795 12.8548Z" fill="white"/>
<path d="M4.17917 16.4983C5.03039 15.7575 6.08952 15.2312 7.05428 15.0696C7.47007 15 8.16271 15.0276 8.54773 15.1292C9.16488 15.292 9.71696 15.6567 10.0041 16.0911C10.2847 16.5156 10.405 16.8856 10.5304 17.7088C10.5798 18.0336 10.6336 18.3596 10.6499 18.4335C10.744 18.8601 10.9272 19.2011 11.1541 19.3724C11.5146 19.6444 12.1354 19.6612 12.7461 19.4157C12.8497 19.374 12.9397 19.3452 12.946 19.3517C12.9682 19.3744 12.6607 19.5865 12.4438 19.6983C12.1518 19.8485 11.9197 19.9067 11.6113 19.9067C11.052 19.9067 10.5877 19.6135 10.2002 19.0155C10.124 18.8977 9.95259 18.5453 9.81938 18.2321C9.41027 17.2704 9.20828 16.9775 8.73328 16.6568C8.31991 16.3779 7.78682 16.3279 7.38578 16.5305C6.85897 16.7968 6.71198 17.4907 7.08929 17.9304C7.23926 18.1052 7.5189 18.2559 7.74756 18.2852C8.17536 18.3401 8.543 18.0047 8.543 17.5595C8.543 17.2704 8.4352 17.1055 8.16385 16.9792C7.79323 16.8068 7.39487 17.0084 7.39677 17.3672C7.39759 17.5203 7.46224 17.6163 7.61106 17.6857C7.70654 17.7303 7.70875 17.7337 7.6309 17.7171C7.29085 17.6444 7.21119 17.2219 7.4846 16.9413C7.81287 16.6047 8.49165 16.7532 8.72475 17.2129C8.82268 17.406 8.83403 17.7905 8.74866 18.0227C8.55759 18.5424 8.00044 18.8156 7.43525 18.6669C7.05045 18.5656 6.89376 18.456 6.42982 17.9635C5.62365 17.1075 5.31068 16.9416 4.14845 16.7547L3.92574 16.7188L4.17917 16.4983Z" fill="white"/>
<path fill-rule="evenodd" clip-rule="evenodd" d="M0.396492 1.17864C3.08874 4.5466 4.94302 5.93616 5.14908 6.22974C5.31922 6.47215 5.25519 6.69008 4.96372 6.86088C4.80163 6.95584 4.46838 7.05206 4.30154 7.05206C4.11283 7.05206 4.04803 6.97703 4.04803 6.97703C3.93862 6.87006 3.87699 6.88876 3.31509 5.86072C2.53499 4.61307 1.88214 3.57808 1.86434 3.56075C1.82316 3.52068 1.82386 3.52203 3.23555 6.1255C3.46364 6.66812 3.28091 6.86731 3.28091 6.94459C3.28091 7.1018 3.23931 7.18444 3.05114 7.40078C2.73747 7.76146 2.59725 8.16672 2.49602 9.00546C2.38256 9.94567 2.06347 10.6098 1.1792 11.7465C0.66158 12.4119 0.576882 12.5339 0.446271 12.802C0.281757 13.1397 0.236521 13.3289 0.218187 13.7553C0.198809 14.2063 0.23655 14.4976 0.370201 14.9287C0.487207 15.3061 0.609341 15.5553 0.921572 16.0537C1.19102 16.4839 1.34617 16.8036 1.34617 16.9287C1.34617 17.0281 1.36461 17.0283 1.78214 16.9311C2.78136 16.6985 3.59272 16.2895 4.04904 15.7881C4.33146 15.4779 4.39776 15.3065 4.39991 14.8815C4.40132 14.6033 4.39183 14.5451 4.31889 14.3851C4.20017 14.1247 3.98403 13.9081 3.50765 13.5725C2.88347 13.1327 2.61687 12.7786 2.54323 12.2917C2.48282 11.8922 2.5529 11.6103 2.89821 10.8643C3.25561 10.0922 3.34418 9.76318 3.4041 8.98491C3.4428 8.4821 3.49638 8.2838 3.63654 8.12463C3.78273 7.95866 3.91432 7.90244 4.27608 7.8515C4.86588 7.76846 5.24143 7.61118 5.55013 7.31798C5.81792 7.06362 5.92998 6.81854 5.94717 6.44959L5.96024 6.16995L5.81058 5.99011C5.26864 5.3388 0.0335575 0.666656 0.000206275 0.666656C-0.00691849 0.666656 0.171418 0.897062 0.396492 1.17864ZM1.65039 14.2656C1.77292 14.0419 1.70781 13.7544 1.50286 13.6139C1.3092 13.4812 1.00836 13.5437 1.00836 13.7167C1.00836 13.7695 1.03668 13.8079 1.10049 13.8417C1.20795 13.8987 1.21575 13.9628 1.1312 14.0937C1.04558 14.2264 1.05249 14.3431 1.1507 14.4223C1.30899 14.55 1.53305 14.4797 1.65039 14.2656Z" fill="white"/>
<path fill-rule="evenodd" clip-rule="evenodd" d="M6.33242 7.99819C6.05554 8.08584 5.78639 8.38831 5.70308 8.70546C5.65225 8.89893 5.68109 9.23832 5.75722 9.34313C5.88021 9.51243 5.99915 9.55703 6.32121 9.55469C6.95175 9.55016 7.4999 9.27143 7.56363 8.92298C7.61587 8.63734 7.37512 8.24148 7.04351 8.0677C6.8724 7.97806 6.50849 7.9425 6.33242 7.99819ZM7.06952 8.59228C7.16676 8.44987 7.12422 8.29596 6.95885 8.19187C6.64391 7.99366 6.16766 8.15768 6.16766 8.46434C6.16766 8.61698 6.41602 8.78352 6.64367 8.78352C6.79519 8.78352 7.00255 8.69039 7.06952 8.59228Z" fill="white"/>
</svg>
