<svg width="43" height="14" viewBox="0 0 43 14" fill="none" xmlns="http://www.w3.org/2000/svg">
<path d="M4.986 3.982C6.21 3.982 7.116 4.288 7.704 4.9C8.304 5.5 8.604 6.418 8.604 7.654V12.046C8.604 12.37 8.508 12.628 8.316 12.82C8.124 13 7.86 13.09 7.524 13.09C7.212 13.09 6.954 12.994 6.75 12.802C6.558 12.61 6.462 12.358 6.462 12.046V11.65C6.258 12.118 5.934 12.484 5.49 12.748C5.058 13.012 4.554 13.144 3.978 13.144C3.39 13.144 2.856 13.024 2.376 12.784C1.896 12.544 1.518 12.214 1.242 11.794C0.966 11.374 0.828 10.906 0.828 10.39C0.828 9.742 0.99 9.232 1.314 8.86C1.65 8.488 2.19 8.218 2.934 8.05C3.678 7.882 4.704 7.798 6.012 7.798H6.462V7.384C6.462 6.796 6.336 6.37 6.084 6.106C5.832 5.83 5.424 5.692 4.86 5.692C4.512 5.692 4.158 5.746 3.798 5.854C3.438 5.95 3.012 6.094 2.52 6.286C2.208 6.442 1.98 6.52 1.836 6.52C1.62 6.52 1.44 6.442 1.296 6.286C1.164 6.13 1.098 5.926 1.098 5.674C1.098 5.47 1.146 5.296 1.242 5.152C1.35 4.996 1.524 4.852 1.764 4.72C2.184 4.492 2.682 4.312 3.258 4.18C3.846 4.048 4.422 3.982 4.986 3.982ZM4.428 11.524C5.028 11.524 5.514 11.326 5.886 10.93C6.27 10.522 6.462 10 6.462 9.364V8.986H6.138C5.334 8.986 4.71 9.022 4.266 9.094C3.822 9.166 3.504 9.292 3.312 9.472C3.12 9.652 3.024 9.898 3.024 10.21C3.024 10.594 3.156 10.912 3.42 11.164C3.696 11.404 4.032 11.524 4.428 11.524ZM17.8387 4.018C18.1867 4.018 18.4627 4.114 18.6667 4.306C18.8707 4.498 18.9727 4.756 18.9727 5.08V12.064C18.9727 12.376 18.8647 12.628 18.6487 12.82C18.4447 13.012 18.1747 13.108 17.8387 13.108C17.5147 13.108 17.2567 13.018 17.0647 12.838C16.8727 12.658 16.7767 12.412 16.7767 12.1V11.65C16.5007 12.13 16.1287 12.502 15.6607 12.766C15.1927 13.018 14.6647 13.144 14.0767 13.144C11.9167 13.144 10.8367 11.932 10.8367 9.508V5.08C10.8367 4.756 10.9387 4.498 11.1427 4.306C11.3467 4.114 11.6167 4.018 11.9527 4.018C12.3007 4.018 12.5767 4.114 12.7807 4.306C12.9847 4.498 13.0867 4.756 13.0867 5.08V9.526C13.0867 10.15 13.2127 10.612 13.4647 10.912C13.7167 11.212 14.1127 11.362 14.6527 11.362C15.2767 11.362 15.7747 11.158 16.1467 10.75C16.5307 10.33 16.7227 9.778 16.7227 9.094V5.08C16.7227 4.756 16.8247 4.498 17.0287 4.306C17.2327 4.114 17.5027 4.018 17.8387 4.018ZM28.6585 0.219999C28.9945 0.219999 29.2705 0.316 29.4865 0.508C29.7025 0.7 29.8105 0.952 29.8105 1.264V12.028C29.8105 12.352 29.7085 12.61 29.5045 12.802C29.3005 12.994 29.0305 13.09 28.6945 13.09C28.3585 13.09 28.0885 12.994 27.8845 12.802C27.6805 12.61 27.5785 12.352 27.5785 12.028V11.578C27.3145 12.07 26.9305 12.454 26.4265 12.73C25.9345 13.006 25.3705 13.144 24.7345 13.144C23.9785 13.144 23.3005 12.952 22.7005 12.568C22.1125 12.184 21.6505 11.644 21.3145 10.948C20.9905 10.24 20.8285 9.43 20.8285 8.518C20.8285 7.606 20.9905 6.808 21.3145 6.124C21.6505 5.44 22.1125 4.912 22.7005 4.54C23.2885 4.168 23.9665 3.982 24.7345 3.982C25.3705 3.982 25.9345 4.114 26.4265 4.378C26.9185 4.642 27.2965 5.014 27.5605 5.494V1.228C27.5605 0.927999 27.6565 0.688 27.8485 0.508C28.0525 0.316 28.3225 0.219999 28.6585 0.219999ZM25.3285 11.398C26.0485 11.398 26.6005 11.152 26.9845 10.66C27.3805 10.168 27.5785 9.466 27.5785 8.554C27.5785 7.642 27.3805 6.946 26.9845 6.466C26.6005 5.974 26.0545 5.728 25.3465 5.728C24.6265 5.728 24.0685 5.968 23.6725 6.448C23.2765 6.928 23.0785 7.618 23.0785 8.518C23.0785 9.43 23.2765 10.138 23.6725 10.642C24.0685 11.146 24.6205 11.398 25.3285 11.398ZM33.2411 13.108C32.9171 13.108 32.6471 13.018 32.4311 12.838C32.2271 12.646 32.1251 12.376 32.1251 12.028V5.08C32.1251 4.732 32.2271 4.468 32.4311 4.288C32.6471 4.108 32.9171 4.018 33.2411 4.018C33.5651 4.018 33.8351 4.108 34.0511 4.288C34.2671 4.468 34.3751 4.732 34.3751 5.08V12.028C34.3751 12.376 34.2671 12.646 34.0511 12.838C33.8351 13.018 33.5651 13.108 33.2411 13.108ZM33.2411 2.416C32.8331 2.416 32.5091 2.308 32.2691 2.092C32.0291 1.864 31.9091 1.57 31.9091 1.21C31.9091 0.849999 32.0291 0.561999 32.2691 0.346C32.5091 0.13 32.8331 0.0219997 33.2411 0.0219997C33.6371 0.0219997 33.9551 0.13 34.1951 0.346C34.4471 0.561999 34.5731 0.849999 34.5731 1.21C34.5731 1.57 34.4531 1.864 34.2131 2.092C33.9731 2.308 33.6491 2.416 33.2411 2.416ZM41.6541 11.434C42.2541 11.47 42.5541 11.74 42.5541 12.244C42.5541 12.532 42.4341 12.754 42.1941 12.91C41.9661 13.054 41.6361 13.114 41.2041 13.09L40.7181 13.054C38.7021 12.91 37.6941 11.83 37.6941 9.814V5.89H36.7941C36.4701 5.89 36.2181 5.818 36.0381 5.674C35.8701 5.53 35.7861 5.32 35.7861 5.044C35.7861 4.768 35.8701 4.558 36.0381 4.414C36.2181 4.27 36.4701 4.198 36.7941 4.198H37.6941V2.542C37.6941 2.218 37.7961 1.96 38.0001 1.768C38.2041 1.576 38.4801 1.48 38.8281 1.48C39.1641 1.48 39.4341 1.576 39.6381 1.768C39.8421 1.96 39.9441 2.218 39.9441 2.542V4.198H41.4741C41.7981 4.198 42.0441 4.27 42.2121 4.414C42.3921 4.558 42.4821 4.768 42.4821 5.044C42.4821 5.32 42.3921 5.53 42.2121 5.674C42.0441 5.818 41.7981 5.89 41.4741 5.89H39.9441V9.976C39.9441 10.864 40.3521 11.338 41.1681 11.398L41.6541 11.434Z" fill="white"/>
</svg>
