<svg xmlns="http://www.w3.org/2000/svg" width="66.658" height="60.745" viewBox="0 0 66.658 60.745"><defs><style>.a{fill:#ff48a1;}.b{fill:#e62683;}.c{fill:#ff6db4;}</style></defs><g transform="translate(0.448 0.454)"><path class="a" d="M475.881,486.755c-4.945-7.982-11.741-9.187-16.054-8.527-1.621-3.989-5.819-9.111-14.067-9.111a16.919,16.919,0,0,0-15.194,9.241,15.629,15.629,0,0,0-9.552.824c-3.521,1.591-6.123,4.624-7.734,9.015-2.776,7.567.142,12.782,3.08,15.823a21.023,21.023,0,0,0,5.422,3.971v18.748a2.227,2.227,0,0,0,2.948,2.1,64.761,64.761,0,0,1,18.452-3c9.712,0,22.327,3.026,22.453,3.056a2.225,2.225,0,0,0,2.749-2.163v-18.93c2.369-1.564,7.693-5.617,9.161-11.294A12.177,12.177,0,0,0,475.881,486.755Z" transform="translate(-412.162 -469.117)"/></g><path class="b" d="M475.7,485.966c-5.652-9.123-13.409-9.117-16.154-8.78a15.039,15.039,0,0,0-14.344-9.068,17.411,17.411,0,0,0-15.43,9.184,15.835,15.835,0,0,0-9.5.92c-3.633,1.641-6.314,4.759-7.969,9.267-2.856,7.783.152,13.152,3.177,16.286a21.337,21.337,0,0,0,5.3,3.931v18.477a2.672,2.672,0,0,0,3.538,2.526,64.251,64.251,0,0,1,18.308-2.975c9.626,0,22.222,3.014,22.348,3.044a2.641,2.641,0,0,0,.629.075,2.687,2.687,0,0,0,1.652-.571,2.657,2.657,0,0,0,1.019-2.1V507.49c2.41-1.621,7.672-5.722,9.147-11.421a12.6,12.6,0,0,0-1.721-10.1Zm-12.771,20.049v6.034c-3.605-1.091-9.785-2.3-19.442-2.3-7.25,0-13.234.693-17.369,2.007v-5.739a2.692,2.692,0,0,0-1.707-2.491,16.082,16.082,0,0,1-5.175-3.551c-2.786-2.942-3.431-6.524-1.919-10.645,1.136-3.1,2.86-5.192,5.123-6.226,3.675-1.678,7.835-.165,7.87-.153a.346.346,0,0,0,.085.024.754.754,0,0,0,.1.039c.056.018,5.573,1.863,7.277,9.637a2.67,2.67,0,1,0,5.217-1.143,18.7,18.7,0,0,0-8.151-12.248,11.8,11.8,0,0,1,10.367-5.8c8.329,0,9.883,7.1,9.944,7.394a2.669,2.669,0,0,0,3.6,1.98c.288-.113,7.082-2.665,12.417,5.946a7.369,7.369,0,0,1,1.089,5.941c-1.323,5.149-7.889,8.928-7.953,8.964a2.674,2.674,0,0,0-1.374,2.33Zm0,11.664v5.18a109.435,109.435,0,0,0-20.306-2.465,68.415,68.415,0,0,0-16.5,2.23v-5.152c1.756-.8,6.59-2.384,17.369-2.384,11.23,0,17.177,1.73,19.436,2.591Z" transform="translate(-411.155 -468.108)"/><path class="c" d="M444.773,558.481v-5.2s26.279-4.337,36.811,5.5a76.354,76.354,0,0,0-19.118-2.549,66.136,66.136,0,0,0-17.693,2.249Z" transform="translate(-429.811 -514.836)"/><path class="c" d="M431.63,529.109s-5.5-2.119-7.339-5.941-1.57-5.533,0-9.6C424.291,513.573,425.262,525.386,431.63,529.109Z" transform="translate(-417.734 -493.332)"/><path class="c" d="M464.357,485.918a20.422,20.422,0,0,1,7.969,11.48s-3.956-10.261,2.418-12.8,8.684,0,8.684,0-1.743-4.482-8.7-4.482a11.863,11.863,0,0,0-10.371,5.8Z" transform="translate(-440.678 -474.768)"/><path class="c" d="M444.773,579v5.152a102.162,102.162,0,0,1,20.383-2.1c5.383,0,16.427,2.337,16.427,2.337s-10.251-4.463-15.883-4.463S446.453,581.488,444.773,579Z" transform="translate(-429.811 -529.639)"/></svg>