<svg xmlns="http://www.w3.org/2000/svg" width="21.333" height="21.333" viewBox="0 0 21.333 21.333"><defs><style>.a{fill:#fff;}</style></defs><path class="a" d="M64.762,67.81h0Zm0,13.714h0Zm16.762,3.048v0Zm-13.714,0v0ZM84.571,67.81h0Zm0,13.714h0ZM81.524,64.762v0Zm-13.714,0v0ZM74.667,73.9h0Zm0,1.524h0Zm9.9,3.048v.762a.762.762,0,0,0,.762-.762Zm-6.857,0v0Zm6.857-7.619h.762V70.1h-.762Zm-6.857,0v0Zm.762,3.81v1.524A1.524,1.524,0,0,0,80,74.667Zm0,0H76.952a1.524,1.524,0,0,0,1.524,1.524Zm0,0V73.143a1.524,1.524,0,0,0-1.524,1.524Zm0,0H80a1.524,1.524,0,0,0-1.524-1.524ZM64,67.81V81.524h1.524V67.81Zm17.524,16H67.81v1.524H81.524Zm2.286-16V81.524h1.524V67.81ZM81.524,64H67.81v1.524H81.524Zm3.81,3.81A3.81,3.81,0,0,0,81.524,64v1.524A2.286,2.286,0,0,1,83.81,67.81Zm-19.81,0a2.286,2.286,0,0,1,2.286-2.286V64A3.81,3.81,0,0,0,64,67.81ZM64,81.524a3.81,3.81,0,0,0,3.81,3.81V83.81a2.286,2.286,0,0,1-2.286-2.286Zm17.524,3.81a3.81,3.81,0,0,0,3.81-3.81H83.81a2.286,2.286,0,0,1-2.286,2.286ZM73.9,73.9v1.524h1.524V73.9Zm10.667,3.81H77.714v1.524h6.857Zm-.762-6.857v7.619h1.524V70.857Zm.762-.762H77.714v1.524h6.857ZM75.429,73.9a2.286,2.286,0,0,1,2.286-2.286V70.1A3.81,3.81,0,0,0,73.9,73.9ZM73.9,75.429a3.81,3.81,0,0,0,3.81,3.81V77.714a2.286,2.286,0,0,1-2.286-2.286Z" transform="translate(-64 -64)"/></svg>