<svg width="19" height="16" viewBox="0 0 19 16" fill="none" xmlns="http://www.w3.org/2000/svg">
<path d="M19 1.79987C18.301 2.10544 17.5497 2.31123 16.7612 2.40399C17.5663 1.92927 18.1846 1.17705 18.4751 0.280621C17.7223 0.720261 16.8878 1.03986 15.9996 1.21213C15.2895 0.466143 14.2753 0 13.1543 0C10.6376 0 8.78829 2.31201 9.35671 4.7121C6.118 4.5523 3.24583 3.02447 1.32288 0.702332C0.301625 2.42737 0.79325 4.68403 2.52858 5.82679C1.8905 5.80652 1.28883 5.63425 0.763958 5.34661C0.721208 7.12466 2.01558 8.78812 3.89025 9.15838C3.34163 9.30493 2.74075 9.33923 2.12958 9.22386C2.62517 10.7486 4.06442 11.8578 5.77125 11.889C4.1325 13.1541 2.06783 13.7193 0 13.4792C1.72504 14.5681 3.77467 15.2034 5.9755 15.2034C13.2129 15.2034 17.3019 9.18489 17.0549 3.78683C17.8165 3.24507 18.4775 2.56924 19 1.79987V1.79987Z" fill="white"/>
</svg>
