<svg xmlns="http://www.w3.org/2000/svg" width="89.923" height="96.603" viewBox="0 0 89.923 96.603"><defs><style>.a{fill:#50689e;}</style></defs><path class="a" d="M278.327,178.861H240.078a2.879,2.879,0,0,1-2.875-2.876V93.134a2.879,2.879,0,0,1,2.875-2.876h63.615a2.879,2.879,0,0,1,2.876,2.876v34.337a2,2,0,0,0,4,0V93.134a6.884,6.884,0,0,0-6.876-6.876H240.078a6.883,6.883,0,0,0-6.875,6.876v82.851a6.883,6.883,0,0,0,6.875,6.876h38.249a2,2,0,0,0,0-4Z" transform="translate(-233.203 -86.258)"/><path class="a" d="M299.431,135.471a23.695,23.695,0,1,0,23.7,23.7A23.723,23.723,0,0,0,299.431,135.471Zm0,43.39a19.695,19.695,0,1,1,19.7-19.695A19.717,19.717,0,0,1,299.431,178.861Z" transform="translate(-233.203 -86.258)"/><path class="a" d="M296.955,102H246.816a2,2,0,0,0,0,4h50.139a2,2,0,0,0,0-4Z" transform="translate(-233.203 -86.258)"/><path class="a" d="M298.955,123.98a2,2,0,0,0-2-2H246.816a2,2,0,0,0,0,4h50.139A2,2,0,0,0,298.955,123.98Z" transform="translate(-233.203 -86.258)"/><path class="a" d="M277.495,143.936a2,2,0,0,0-2-2H246.772a2,2,0,0,0,0,4h28.723A2,2,0,0,0,277.495,143.936Z" transform="translate(-233.203 -86.258)"/><path class="a" d="M246.772,161.936a2,2,0,0,0,0,4h23.733a2,2,0,0,0,0-4Z" transform="translate(-233.203 -86.258)"/><path class="a" d="M309.518,149.079a2,2,0,0,0-2.829,0l-7.259,7.259-7.259-7.259a2,2,0,0,0-2.828,2.828l7.259,7.259-7.259,7.259a2,2,0,1,0,2.828,2.828l7.259-7.259,7.259,7.259a2,2,0,0,0,2.829-2.828l-7.26-7.259,7.26-7.259A2,2,0,0,0,309.518,149.079Z" transform="translate(-233.203 -86.258)"/></svg>