<svg width="19" height="15" viewBox="0 0 19 15" fill="none" xmlns="http://www.w3.org/2000/svg">
<path fill-rule="evenodd" clip-rule="evenodd" d="M18.5059 0.516949L15.6954 13.9805C15.6954 13.9805 15.3024 14.9142 14.2215 14.4659L7.73584 9.74153L5.37743 8.65856L1.40749 7.38871C1.40749 7.38871 0.798226 7.18323 0.739341 6.73519C0.680362 6.28688 1.42715 6.04423 1.42715 6.04423L17.2088 0.162126C17.2088 0.162126 18.5058 -0.379403 18.5058 0.516949H18.5059Z" fill="#FEFEFE"/>
<path fill-rule="evenodd" clip-rule="evenodd" d="M7.23676 12.9764C7.23676 12.9764 7.04744 12.9595 6.81153 12.2499C6.57571 11.5404 5.37695 7.80573 5.37695 7.80573L14.9086 2.0543C14.9086 2.0543 15.4589 1.73684 15.4392 2.0543C15.4392 2.0543 15.5375 2.11025 15.2427 2.37168C14.9479 2.6331 7.7549 8.77662 7.7549 8.77662L7.23686 12.9764H7.23676Z" fill="#0E0910"/>
</svg>
